<svg id="Layer_1" data-name="Layer 1" xmlns="http://www.w3.org/2000/svg" viewBox="0 0 137 42"><defs><style>.cls-1,.cls-2{fill:#fff}.cls-2{fill-rule:evenodd}</style></defs><title>apple_store_dl</title><path class="cls-1" d="M132 1a4 4 0 0 1 4 4v32a4 4 0 0 1-4 4H5a4 4 0 0 1-4-4V5a4 4 0 0 1 4-4h127m0-1H5a5 5 0 0 0-5 5v32a5 5 0 0 0 5 5h127a5 5 0 0 0 5-5V5a5 5 0 0 0-5-5z"/><path class="cls-2" d="M31.13 20.78a5.8 5.8 0 0 1 2.76-4.86 5.93 5.93 0 0 0-4.68-2.53c-2-.21-3.87 1.18-4.88 1.18s-2.57-1.16-4.23-1.12a6.23 6.23 0 0 0-5.24 3.2c-2.27 3.92-.58 9.69 1.59 12.86 1.09 1.55 2.36 3.29 4 3.23s2.23-1 4.19-1 2.51 1 4.21 1 2.84-1.56 3.89-3.13a12.84 12.84 0 0 0 1.78-3.62 5.6 5.6 0 0 1-3.42-5.15m-3.17-9.53a5.71 5.71 0 0 0 1.31-4.09 5.8 5.8 0 0 0-3.76 1.94 5.43 5.43 0 0 0-1.34 3.94 4.8 4.8 0 0 0 3.79-1.79M54.65 32.5h-2.28l-1.24-3.9h-4.32l-1.19 3.9h-2.21l4.28-13.3h2.65zM50.76 27l-1.12-3.47q-.19-.58-.64-2.53-.2.85-.63 2.51L47.18 27h3.57zm14.9.59a5.45 5.45 0 0 1-1.32 3.87 3.87 3.87 0 0 1-2.94 1.26 2.94 2.94 0 0 1-2.72-1.36v5.06H56.5V26.07q0-1.54-.08-3.16h1.88l.12 1.52a3.79 3.79 0 0 1 6.07-.38 5.29 5.29 0 0 1 1.17 3.54zm-2.17.08a4 4 0 0 0-.63-2.31 2.18 2.18 0 0 0-1.86-.95 2.21 2.21 0 0 0-1.43.52 2.42 2.42 0 0 0-.84 1.37 2.78 2.78 0 0 0-.1.65v1.6a2.56 2.56 0 0 0 .64 1.77 2.13 2.13 0 0 0 1.67.72 2.18 2.18 0 0 0 1.88-.93 4.09 4.09 0 0 0 .67-2.44zm13.21-.08a5.45 5.45 0 0 1-1.32 3.87 3.86 3.86 0 0 1-2.94 1.26 2.94 2.94 0 0 1-2.72-1.36v5.06h-2.18V26.07q0-1.54-.08-3.16h1.88l.12 1.52a3.79 3.79 0 0 1 6.07-.38 5.3 5.3 0 0 1 1.17 3.54zm-2.17.08a4 4 0 0 0-.63-2.31 2.18 2.18 0 0 0-1.9-.95 2.22 2.22 0 0 0-1.43.52 2.43 2.43 0 0 0-.84 1.37 2.84 2.84 0 0 0-.1.65v1.6a2.57 2.57 0 0 0 .64 1.77A2.13 2.13 0 0 0 72 31a2.18 2.18 0 0 0 1.88-.93 4.08 4.08 0 0 0 .65-2.4zM89 28.77a3.55 3.55 0 0 1-1.18 2.76 5.23 5.23 0 0 1-3.62 1.16 6.35 6.35 0 0 1-3.45-.83l.49-1.78a5.84 5.84 0 0 0 3.08.85 2.91 2.91 0 0 0 1.88-.54 1.77 1.77 0 0 0 .67-1.45 1.85 1.85 0 0 0-.55-1.36 5.14 5.14 0 0 0-1.83-1Q81 25.25 81 22.74A3.38 3.38 0 0 1 82.25 20a4.83 4.83 0 0 1 3.26-1 6.45 6.45 0 0 1 3 .63L88 21.37a5.24 5.24 0 0 0-2.55-.61 2.57 2.57 0 0 0-1.76.55 1.58 1.58 0 0 0-.53 1.2 1.62 1.62 0 0 0 .61 1.3 6.88 6.88 0 0 0 1.94 1 6.57 6.57 0 0 1 2.53 1.62 3.39 3.39 0 0 1 .76 2.34m7.09-4.26h-2.35v4.66q0 1.78 1.24 1.78a3.85 3.85 0 0 0 .95-.1l.07 1.62a4.83 4.83 0 0 1-1.66.24 2.56 2.56 0 0 1-2-.77 3.79 3.79 0 0 1-.71-2.59v-4.84h-1.4v-1.6h1.4v-1.76l2.09-.63v2.39h2.35v1.6m10.62 3.12a5.26 5.26 0 0 1-1.26 3.63 4.52 4.52 0 0 1-3.52 1.46 4.29 4.29 0 0 1-3.37-1.4 5.1 5.1 0 0 1-1.25-3.53 5.21 5.21 0 0 1 1.29-3.65 4.47 4.47 0 0 1 3.48-1.42 4.38 4.38 0 0 1 3.4 1.4 5.06 5.06 0 0 1 1.23 3.51zm-2.21.07a4.32 4.32 0 0 0-.57-2.28 2.11 2.11 0 0 0-1.91-1.15 2.14 2.14 0 0 0-2 1.15 4.4 4.4 0 0 0-.57 2.32A4.32 4.32 0 0 0 100 30a2.15 2.15 0 0 0 2 1.16 2.13 2.13 0 0 0 1.89-1.16 4.33 4.33 0 0 0 .59-2.3zm9.14-2.92a3.7 3.7 0 0 0-.67-.06 2 2 0 0 0-1.74.85 3.19 3.19 0 0 0-.53 1.9v5h-2.13V25.9q0-1.66-.08-3h1.86l.08 1.84h.06a3.28 3.28 0 0 1 1.07-1.52 2.58 2.58 0 0 1 1.54-.51 3.42 3.42 0 0 1 .53 0v2m9.55 2.54a5 5 0 0 1-.08 1h-6.4a2.79 2.79 0 0 0 .93 2.17 3.17 3.17 0 0 0 2.09.67 7.07 7.07 0 0 0 2.59-.45l.33 1.48a8 8 0 0 1-3.22.59 4.66 4.66 0 0 1-3.51-1.31 4.85 4.85 0 0 1-1.27-3.52 5.49 5.49 0 0 1 1.19-3.61 4.08 4.08 0 0 1 3.35-1.54 3.57 3.57 0 0 1 3.14 1.54 5.19 5.19 0 0 1 .86 2.98zm-2-.55a2.9 2.9 0 0 0-.41-1.64 1.86 1.86 0 0 0-1.7-.89 2 2 0 0 0-1.7.87 3.16 3.16 0 0 0-.63 1.66h4.44zM50 11a3.28 3.28 0 0 1-1 2.67 4.21 4.21 0 0 1-2.78.82 13.15 13.15 0 0 1-1.53-.08V8a11.32 11.32 0 0 1 1.81-.13 3.89 3.89 0 0 1 2.59.75A3 3 0 0 1 50 11zm-1.1 0a2.39 2.39 0 0 0-.61-1.76 2.39 2.39 0 0 0-1.77-.61 4.51 4.51 0 0 0-.84.07v4.89a5.53 5.53 0 0 0 .71 0 2.48 2.48 0 0 0 1.9-.59 2.68 2.68 0 0 0 .65-2zm7.01 1a2.59 2.59 0 0 1-.62 1.78 2.22 2.22 0 0 1-1.73.72 2.11 2.11 0 0 1-1.65-.69 2.51 2.51 0 0 1-.62-1.74 2.56 2.56 0 0 1 .63-1.8 2.2 2.2 0 0 1 1.71-.7 2.16 2.16 0 0 1 1.67.69 2.49 2.49 0 0 1 .61 1.74zm-1.09 0a2.12 2.12 0 0 0-.28-1 1 1 0 0 0-.94-.56 1.05 1.05 0 0 0-1 .56 2.17 2.17 0 0 0-.28 1.14 2.14 2.14 0 0 0 .28 1.12 1.06 1.06 0 0 0 1 .56 1 1 0 0 0 .94-.57 2.12 2.12 0 0 0 .28-1.18zm8.94-2.28l-1.47 4.71h-1l-.61-2a15.25 15.25 0 0 1-.38-1.52 11.11 11.11 0 0 1-.38 1.52l-.65 2h-1l-1.33-4.71H58l.55 2.28q.19.8.32 1.51.12-.59.39-1.5l.67-2.25h.87l.64 2.2q.23.81.38 1.55a14.59 14.59 0 0 1 .32-1.55l.57-2.2h1m5.49 4.67h-1v-2.7q0-1.25-1-1.25a1 1 0 0 0-.76.34 1.21 1.21 0 0 0-.29.81v2.8h-1V9.72H66v.74a1.51 1.51 0 0 1 .54-.57 1.76 1.76 0 0 1 .95-.26 1.5 1.5 0 0 1 1.1.43 2.07 2.07 0 0 1 .54 1.56v2.82"/><path class="cls-1" d="M71.04 7.56h1.05v6.88h-1.05z"/><path class="cls-2" d="M78.26 12a2.59 2.59 0 0 1-.62 1.78 2.22 2.22 0 0 1-1.73.72 2.1 2.1 0 0 1-1.65-.69 2.51 2.51 0 0 1-.61-1.74 2.57 2.57 0 0 1 .63-1.8A2.2 2.2 0 0 1 76 9.62a2.16 2.16 0 0 1 1.67.69 2.48 2.48 0 0 1 .59 1.69zm-1.09 0a2.13 2.13 0 0 0-.28-1 1 1 0 0 0-.94-.56A1 1 0 0 0 75 11a2.17 2.17 0 0 0-.28 1.14 2.14 2.14 0 0 0 .28 1.07 1.06 1.06 0 0 0 1 .56 1 1 0 0 0 .94-.57 2.12 2.12 0 0 0 .23-1.13zm6.16 2.43h-.94l-.08-.54a1.61 1.61 0 0 1-1.38.65 1.42 1.42 0 0 1-1.08-.43 1.34 1.34 0 0 1-.37-1 1.47 1.47 0 0 1 .72-1.32 3.77 3.77 0 0 1 2-.45v-.04a.84.84 0 0 0-1-.93 2.18 2.18 0 0 0-1.23.35l-.18-.72a3 3 0 0 1 1.62-.41 1.68 1.68 0 0 1 1.85 1.95v1.74a7.37 7.37 0 0 0 .07 1.15zm-1.09-1.62v-.72q-1.73 0-1.73.95a.71.71 0 0 0 .2.55.73.73 0 0 0 .51.18 1 1 0 0 0 .64-.22.89.89 0 0 0 .36-.55.9.9 0 0 0 .02-.19zm7.05 1.62h-.93v-.76a1.57 1.57 0 0 1-1.51.86 1.77 1.77 0 0 1-1.42-.67 2.61 2.61 0 0 1-.56-1.74 2.73 2.73 0 0 1 .61-1.85 1.88 1.88 0 0 1 1.46-.66 1.41 1.41 0 0 1 1.33.64V7.56h1v5.61q-.02.68.02 1.26zm-1.09-2v-.77a1.54 1.54 0 0 0 0-.33 1.19 1.19 0 0 0-.38-.64 1 1 0 0 0-.7-.26 1.08 1.08 0 0 0-.92.47 2 2 0 0 0-.34 1.19 1.86 1.86 0 0 0 .32 1.14 1.08 1.08 0 0 0 .92.47 1 1 0 0 0 .83-.39 1.29 1.29 0 0 0 .27-.87zM98.25 12a2.59 2.59 0 0 1-.62 1.78 2.21 2.21 0 0 1-1.73.72 2.11 2.11 0 0 1-1.65-.69 2.51 2.51 0 0 1-.62-1.74 2.56 2.56 0 0 1 .64-1.8A2.2 2.2 0 0 1 96 9.62a2.15 2.15 0 0 1 1.67.69 2.48 2.48 0 0 1 .58 1.69zm-1.09 0a2.13 2.13 0 0 0-.28-1 1 1 0 0 0-.94-.56A1.05 1.05 0 0 0 95 11a2.17 2.17 0 0 0-.28 1.14 2.14 2.14 0 0 0 .28 1.07 1.06 1.06 0 0 0 1 .56 1 1 0 0 0 .94-.57 2.13 2.13 0 0 0 .22-1.13zm6.72 2.43h-1v-2.7q0-1.25-1-1.25a.94.94 0 0 0-.76.34 1.22 1.22 0 0 0-.29.81v2.8h-1V9.72h.92v.74a1.52 1.52 0 0 1 .54-.57 1.77 1.77 0 0 1 1-.26 1.5 1.5 0 0 1 1.1.43 2.07 2.07 0 0 1 .54 1.56v2.82m7.01-3.94h-1.15v2.29c0 .58.21.87.61.87a1.84 1.84 0 0 0 .47 0v.8a2.38 2.38 0 0 1-.82.12 1.25 1.25 0 0 1-1-.38 1.85 1.85 0 0 1-.35-1.27V10.5h-.69v-.78h.69v-.87l1-.31v1.18h1.15v.78m5.63 3.93h-1v-2.68q0-1.27-.95-1.27a1 1 0 0 0-1 .74 1.32 1.32 0 0 0 0 .38v2.84h-1V7.56h1v2.84a1.58 1.58 0 0 1 1.42-.77A1.46 1.46 0 0 1 116 10a2.14 2.14 0 0 1 .53 1.58v2.8m5.68-2.53a2.53 2.53 0 0 1 0 .47H119a1.37 1.37 0 0 0 .46 1.07 1.56 1.56 0 0 0 1 .33 3.48 3.48 0 0 0 1.27-.22l.16.73a3.94 3.94 0 0 1-1.58.29 2.28 2.28 0 0 1-1.72-.65 2.38 2.38 0 0 1-.62-1.73 2.7 2.7 0 0 1 .58-1.77 2 2 0 0 1 1.65-.76 1.75 1.75 0 0 1 1.54.76 2.54 2.54 0 0 1 .47 1.48zm-1-.27a1.41 1.41 0 0 0-.2-.81.91.91 0 0 0-.83-.44 1 1 0 0 0-.83.43 1.58 1.58 0 0 0-.31.81h2.18z"/></svg>