<svg width="21" height="13" viewBox="0 0 21 13" xmlns="http://www.w3.org/2000/svg"><g stroke="#8C8C8C" fill="none" fill-rule="evenodd"><path d="M18.273 1.72a.222.222 0 0 0-.22-.22H3.78c-.12 0-.22.1-.22.22v5.49h14.713V1.72z" stroke-linecap="round"/><path d="M3.56 7.208H1.72a.221.221 0 0 0-.22.221v3.016c0 .121.099.221.22.221h18.393c.12 0 .22-.1.22-.22V7.428a.22.22 0 0 0-.22-.22h-1.84" stroke-linecap="round"/><path d="M5.606 6.979V4.667c0-.17.099-.308.22-.308H9.72c.12 0 .22.139.22.309v2.31m2.074.155V4.595c0-.13.076-.236.169-.236h3.907c.122 0 .22.139.22.308v2.466" stroke-linecap="square"/><path d="M3.548 10.758v1.379m14.768-1.379v1.379" stroke-linecap="round"/></g></svg>