<?xml version="1.0" encoding="utf-8"?>
<!-- Generator: Adobe Illustrator 23.0.2, SVG Export Plug-In . SVG Version: 6.00 Build 0)  -->
<svg version="1.1" id="Layer_1" xmlns="http://www.w3.org/2000/svg" xmlns:xlink="http://www.w3.org/1999/xlink" x="0px" y="0px"
	 viewBox="0 0 110 79" style="enable-background:new 0 0 110 79;" xml:space="preserve">
<style type="text/css">
	.st0{fill:#EFE8CE;}
	.st1{fill:#9B9E93;stroke:#032765;stroke-width:2;stroke-linecap:round;stroke-linejoin:round;stroke-miterlimit:10;}
	.st2{fill:#3AE7FD;stroke:#032765;stroke-width:2;stroke-linecap:round;stroke-linejoin:round;stroke-miterlimit:10;}
	.st3{fill:#FFFFFF;stroke:#032765;stroke-width:2;stroke-miterlimit:10;}
	.st4{fill:none;stroke:#032765;stroke-width:2;stroke-linecap:round;stroke-linejoin:round;stroke-miterlimit:10;}
</style>
<g>
	<polygon class="st0" points="104.6,60.66 104.6,2.39 95.32,4.22 79.87,21.81 67.22,7.52 43.33,29.51 36.3,26.58 16.9,37.57 
		4.54,37.57 4.54,60.66 	"/>
	<path class="st1" d="M102,72.88H8c-3.71,0-6.73-3.01-6.73-6.73v0c0-3.71,3.01-6.73,6.73-6.73H102c3.71,0,6.73,3.01,6.73,6.73v0
		C108.72,69.87,105.71,72.88,102,72.88z"/>
	<path class="st2" d="M75.54,72.88H8c-3.71,0-6.73-3.01-6.73-6.73v0c0-3.71,3.01-6.73,6.73-6.73h67.53c3.71,0,6.73,3.01,6.73,6.73v0
		C82.26,69.87,79.25,72.88,75.54,72.88z"/>
	<circle class="st3" cx="75.05" cy="66.65" r="10.96"/>
	<polyline class="st4" points="4.54,37.57 16.9,37.57 36.3,26.58 43.33,29.51 67.22,7.52 79.87,21.81 95.32,4.22 104.6,2.39 	"/>
</g>
</svg>
