<svg id="Layer_1" data-name="Layer 1" xmlns="http://www.w3.org/2000/svg" viewBox="0 0 137 42"><defs><style>.cls-1,.cls-2{fill:#fff}.cls-2{fill-rule:evenodd}.cls-3{fill:url(#linear-gradient)}.cls-4{fill:url(#linear-gradient-2)}.cls-5{fill:url(#linear-gradient-3)}.cls-6{fill:url(#linear-gradient-4)}</style><linearGradient id="linear-gradient" x1="1.39" y1="42.77" x2="1.39" y2="41.77" gradientTransform="matrix(13.53 0 0 -25.93 .27 1116.72)" gradientUnits="userSpaceOnUse"><stop offset="0" stop-color="#1e79af"/><stop offset="1" stop-color="#63ffd3"/></linearGradient><linearGradient id="linear-gradient-2" x1="1.59" y1="42.37" x2=".79" y2="41.55" gradientTransform="matrix(16.78 0 0 -13.03 1.03 575.13)" gradientUnits="userSpaceOnUse"><stop offset="0" stop-color="#dc4057"/><stop offset="1" stop-color="#9e36bb"/></linearGradient><linearGradient id="linear-gradient-3" x1="1.68" y1="42.26" x2="1.68" y2="41.28" gradientTransform="matrix(10.13 0 0 -8.14 13.8 360.6)" gradientUnits="userSpaceOnUse"><stop offset="0" stop-color="#ff9676"/><stop offset="1" stop-color="#ffd074"/></linearGradient><linearGradient id="linear-gradient-4" x1=".9" y1="42.54" x2="1.72" y2="41.54" gradientTransform="matrix(16.74 0 0 -13 1.05 560.82)" gradientUnits="userSpaceOnUse"><stop offset="0" stop-color="#51c6ad"/><stop offset="1" stop-color="#d5ffa1"/></linearGradient></defs><title>google_play_dl</title><path class="cls-1" d="M132 1a4 4 0 0 1 4 4v32a4 4 0 0 1-4 4H5a4 4 0 0 1-4-4V5a4 4 0 0 1 4-4h127m0-1H5a5 5 0 0 0-5 5v32a5 5 0 0 0 5 5h127a5 5 0 0 0 5-5V5a5 5 0 0 0-5-5z"/><path class="cls-2" d="M117.77 34.18a2.07 2.07 0 0 0 .72.14 1.29 1.29 0 0 0 1.26-1l.65-1.47-3.48-8.34h1l3 7.23 3-7.23h1l-4.25 10.09a2.17 2.17 0 0 1-2.09 1.54 3.47 3.47 0 0 1-.88-.12zm-5.77-3.1a3.3 3.3 0 0 0 1.84-.5 2.54 2.54 0 0 0 1.16-1.29V27.7h-2.07a3.38 3.38 0 0 0-2 .53 1.55 1.55 0 0 0-.78 1.29 1.43 1.43 0 0 0 .5 1.13 2 2 0 0 0 1.35.43zm3.14.65c-.06-.29-.1-.54-.14-.75a5.09 5.09 0 0 1 0-.64 3.77 3.77 0 0 1-3.07 1.56 2.88 2.88 0 0 1-2-.65 2.27 2.27 0 0 1-.71-1.76 2.09 2.09 0 0 1 1-1.8 4.74 4.74 0 0 1 2.69-.69H115v-1a1.73 1.73 0 0 0-.6-1.4 2.55 2.55 0 0 0-1.69-.51 2.66 2.66 0 0 0-1.62.46 1.4 1.4 0 0 0-.61 1.16h-.91a1.92 1.92 0 0 1 .85-1.65 3.7 3.7 0 0 1 2.35-.71 3.65 3.65 0 0 1 2.33.7 2.4 2.4 0 0 1 .88 2v4.08a6.53 6.53 0 0 0 .05.85 5.45 5.45 0 0 0 .18.82h-1zM107 20.33h.88v11.43H107V20.33zm-2.16 7.28c0-2-1-3.53-2.87-3.53a3.51 3.51 0 0 0-2.7 1.69v3.66a3.54 3.54 0 0 0 2.7 1.72c1.8.01 2.83-1.53 2.83-3.54zm-5.57 2.81v4.49h-.92V23.49h.88v1.3a3.51 3.51 0 0 1 2.85-1.51c2.19 0 3.67 1.68 3.67 4.33S104.28 32 102.08 32a3.5 3.5 0 0 1-2.85-1.58zm-7.52-4.53a.55.55 0 0 0 .51-.47 1.75 1.75 0 0 0-1.73-1.52 2.17 2.17 0 0 0-2 2.45c0 .3 0 .61.05.93zm2.48 4.46l-.84.8c-.19.11-.39.23-.58.32a4 4 0 0 1-1.7.33 3.72 3.72 0 0 1-2.33-.69A4.57 4.57 0 0 1 87 27.39a4 4 0 0 1 4-4.07 3.38 3.38 0 0 1 1.8.49 3 3 0 0 1 1.2 1.75l-4.11 1.67-1.35.11c.44 2.24 1.94 3.55 3.6 3.55a4.29 4.29 0 0 0 2-.55s.13-.07.05.01zm-8.59-.14c0 .69.12.79.7.85l.89.09-.65.39h-3.12a1.28 1.28 0 0 0 .47-.93V19.72h-1.37l1.31-.64h2.5a1.22 1.22 0 0 0-.77 1.13v10zm-5.52-1.55a1.79 1.79 0 0 0 .44-1.29c0-1.27-.75-3.24-2.2-3.24a1.62 1.62 0 0 0-1.22.58 2 2 0 0 0-.38 1.3c0 1.18.68 3.14 2.19 3.14a1.78 1.78 0 0 0 1.13-.49zM79.58 32a2.68 2.68 0 0 0-.4 0 6.88 6.88 0 0 0-1.83.28 2 2 0 0 0-1.51 1.82c0 1.25 1.21 2.15 3.08 2.15 1.68 0 2.57-.81 2.57-1.9-.01-.91-.58-1.35-1.91-2.35zm1.24-7.83a2.89 2.89 0 0 1-.23 4.88 1.25 1.25 0 0 0-.49.86 1 1 0 0 0 .45.76l.63.49a3.08 3.08 0 0 1 1.47 2.47c0 1.66-1.59 3.33-4.6 3.33-2.53 0-3.76-1.22-3.76-2.52a2.54 2.54 0 0 1 1.35-2.15A7.48 7.48 0 0 1 79 31.5a1.87 1.87 0 0 1-.53-1.2 1.6 1.6 0 0 1 .18-.69h-.56a2.78 2.78 0 0 1-2.9-2.77 3.18 3.18 0 0 1 1.12-2.36 4.74 4.74 0 0 1 3.13-1H83l-1.12.64h-1.06zm-8.65 6.15a3.19 3.19 0 0 0 .53-2c0-1.55-.73-4.51-2.9-4.51a2.43 2.43 0 0 0-1.58.6 2.68 2.68 0 0 0-.8 2.15c0 1.74.85 4.62 3 4.62a2.23 2.23 0 0 0 1.74-.85zM70 31.76a4.14 4.14 0 0 1-4.27-4.16 4.35 4.35 0 0 1 4.53-4.28 4.11 4.11 0 0 1 4.18 4.16A4.29 4.29 0 0 1 70 31.76zm-7.12-1.43a3.21 3.21 0 0 0 .52-2c0-1.55-.74-4.51-2.9-4.51a2.42 2.42 0 0 0-1.57.6 2.68 2.68 0 0 0-.81 2.15c0 1.74.86 4.62 3 4.62a2.23 2.23 0 0 0 1.74-.86zm-2.19 1.43a4.14 4.14 0 0 1-4.26-4.16 4.35 4.35 0 0 1 4.53-4.28 4.11 4.11 0 0 1 4.18 4.16 4.29 4.29 0 0 1-4.47 4.28zm-5.38-.61l-2.31.54a17 17 0 0 1-2.71.28A5.85 5.85 0 0 1 44 26c0-3.21 2.44-6.18 6.62-6.18a9.51 9.51 0 0 1 2.51.34 6.29 6.29 0 0 1 2.16 1l-1.36 1.3-.57.13.41-.59a4.66 4.66 0 0 0-3.51-1.55 4.55 4.55 0 0 0-4.54 4.88 5.82 5.82 0 0 0 5.8 6 4.85 4.85 0 0 0 2.08-.41v-2.68l-2.48.13 1.31-.71h3.47l-.42.41a.38.38 0 0 0-.16.26v2.8zm28.4-17.42l-2.94-4v4h-1V8.09h1L83.68 12V8.09h1v5.64h-1zm-6.1-2.81a1.87 1.87 0 1 0-3.74 0 1.87 1.87 0 1 0 3.74 0zm-4.75 0a2.88 2.88 0 1 1 5.76 0 2.88 2.88 0 1 1-5.76 0zM67 13.73V9h-1.73v-.91h4.4V9H68v4.77h-1zm-3.77-5.64h1v5.64h-1V8.09zm-6.13 5.64V9h-1.71v-.91h4.4V9h-1.7v4.77h-1zm-6.6 0V8.09h3.86V9h-2.87v1.45h2.81v.87h-2.81v1.57h2.87v.87H50.5zM44 10.92A2.83 2.83 0 0 1 47 8a2.64 2.64 0 0 1 2.27 1.17l-.8.47A1.82 1.82 0 0 0 47 8.88a1.93 1.93 0 0 0-1.94 2A1.94 1.94 0 0 0 47 13a2 2 0 0 0 1.34-.51v-.91H46.6v-.88h2.67v2.1a3 3 0 0 1-2.32 1A2.85 2.85 0 0 1 44 10.92z"/><g id="Page-1-Copy"><g id="google-play"><path id="left" class="cls-3" d="M13.05 7.83a1.3 1.3 0 0 0-.78 1.37v23.19a1.31 1.31 0 0 0 .73 1.36l12.77-13-12.75-13"/><path id="bottom" class="cls-4" d="M13 33.75a1.48 1.48 0 0 0 1.2-.19l15.58-8.71-4-4.08L13 33.75"/><path id="right" class="cls-5" d="M29.81 24.86l5.31-3a1.15 1.15 0 0 0 0-2.19l-5.33-3-4 4.06 4 4.08"/><path id="top" class="cls-6" d="M29.79 16.72L14.23 8a1.5 1.5 0 0 0-1.18-.2l12.75 13 4-4.06"/></g></g></svg>