<svg width="28" height="33" viewBox="0 0 28 33" xmlns="http://www.w3.org/2000/svg"><g fill="none" fill-rule="evenodd"><path d="M6 32.5c-.3 0-.6-.3-.6-.6v-1.1c0-.3.3-.6.6-.6s.6.3.6.6v1.1c0 .3-.3.6-.6.6zm16 0c-.3 0-.6-.3-.6-.6v-1.1c0-.3.3-.6.6-.6s.6.3.6.6v1.1c-.1.3-.3.6-.6.6z" fill="#004C75"/><path d="M24.8.5H3.2C1.9.5.5 1.6.5 2.8v5.7h27V2.8c0-1.2-1.4-2.3-2.7-2.3z" fill="#D4ECFA"/><path d="M.5 29c0 1.3 1.4 2.5 2.7 2.5h21.7c1.3 0 2.7-1.2 2.7-2.5V8.5H.6V29H.5z" fill="#0080C6"/><circle stroke="#004C75" stroke-width=".5" fill="#FDC435" cx="20.1" cy="4.9" r="1"/><circle stroke="#004C75" stroke-width=".5" fill="#FDC435" cx="23.5" cy="4.9" r="1"/><path fill="#004C75" d="M.5 7.4h27v1.1H.5z"/><circle fill="#004C75" cx="14" cy="19.4" r="5.1"/><path d="M14 11.9c-4.1 0-7.4 3.3-7.4 7.4 0 4.1 3.3 7.4 7.4 7.4 4.1 0 7.4-3.3 7.4-7.4 0-4.1-3.3-7.4-7.4-7.4zm0 1.2c3 0 5.6 2.1 6.1 5-.8 1-3.3 2.5-5.4 1.1-1.8-1.2-3.6-1.6-5.3-1.2-.7.2-1.3.5-1.7 1 .3-3.3 3-5.9 6.3-5.9zm0 12.5c-3 0-5.6-2.2-6.1-5 .3-.7 1.1-1.3 1.9-1.5 1.3-.4 2.8 0 4.3 1 .8.6 1.7.8 2.5.8 1.4 0 2.7-.6 3.6-1.3 0 3.3-2.8 6-6.2 6z" fill="#D4ECFA"/></g></svg>