<svg width="28" height="25" viewBox="0 0 28 25" xmlns="http://www.w3.org/2000/svg"><g fill="none" fill-rule="evenodd"><path d="M28 10.7c0-2.8-2-5-4.5-5-.5 0-1 .1-1.5.3v-.3c0-2.8-2-5-4.5-5-1.4 0-2.7.7-3.5 1.9-.8-1.1-2.1-1.9-3.5-1.9C8 .7 6 2.9 6 5.7V6c-.5-.2-1-.3-1.5-.3C2 5.7 0 7.9 0 10.7c0 2.5 1.7 4.6 3.9 4.9-.4.5-.7 1.1-.9 1.7-.8 2.3-.1 4.2.3 5 .5 1 1.8 2.7 5.1 2.7 1.2 0 2.3-.2 2.9-.4.6-.2 1-.5 1.3-.7.3-.2.5-.4 1.2-.4h.8c.7 0 .8.3 1.2.4.3.1.7.4 1.3.6.5.1 1.6.4 2.9.4 3.3 0 4.6-1.7 5.1-2.7.4-.7 1.1-2.7.3-5-.2-.6-.5-1.2-.9-1.7 1.8-.2 3.5-2.3 3.5-4.8z" fill="#004C75"/><path d="M23.5 7.5c-1.7 0-3 1.3-3 3.2 0 1.9 1.3 3.8 3 3.8s3-1.9 3-3.8-1.3-3.2-3-3.2zm-6-5c-1.7 0-3 1.3-3 3.2 0 1.9 1.3 3.8 3 3.8s3-1.9 3-3.8-1.3-3.2-3-3.2z" fill="#D4ECFA"/><path d="M10.5 2.5c-1.7 0-3 1.3-3 3.2 0 1.9 1.3 3.8 3 3.8s3-1.9 3-3.8-1.3-3.2-3-3.2z" fill="#FDC435"/><path d="M4.5 7.5c-1.7 0-3 1.3-3 3.2 0 1.9 1.3 3.8 3 3.8s3-1.9 3-3.8-1.3-3.2-3-3.2z" fill="#D4ECFA"/><path d="M14.4 10.2h-.9c-2 0-2.8 1.2-3.4 2.1-.5.8-1 1.5-2.1 2-1.9.9-3.2 2.1-3.7 3.5-.6 1.7-.1 3.2.2 3.8.4.9 1.4 1.9 3.7 1.9 1.1 0 2-.2 2.5-.3.4-.1.7-.3 1-.4.4-.2.8-.4 1.8-.4h.9c1 0 1.3.2 1.8.4.3.1.6.3 1 .4.5.1 1.4.3 2.5.3 2.3 0 3.3-1 3.7-1.9.3-.6.8-2.1.2-3.8-.5-1.5-1.8-2.7-3.7-3.5-1.1-.5-1.6-1.2-2.1-2-.6-.9-1.4-2.1-3.4-2.1z" fill="#0080C6"/><path d="M23.5 13.5c-1.5 0-2.7-1.6-3-3.3v.5c0 1.9 1.3 3.8 3 3.8s3-1.9 3-3.8v-.5c-.3 1.7-1.5 3.3-3 3.3zm-6-4c1.7 0 3-1.9 3-3.8v-.5c-.2 1.7-1.4 3.3-3 3.3s-2.7-1.6-3-3.3v.5c0 1.9 1.3 3.8 3 3.8zm-7 0c1.7 0 3-1.9 3-3.8v-.5c-.2 1.7-1.4 3.3-3 3.3s-2.7-1.6-3-3.3v.5c0 1.9 1.3 3.8 3 3.8zm-3 1.2v-.5c-.2 1.7-1.4 3.3-3 3.3s-2.7-1.6-3-3.3v.5c0 1.9 1.3 3.8 3 3.8s3-1.9 3-3.8z" fill="#004C75" opacity=".25"/><path d="M19.7 22.5c-1.1 0-2-.2-2.5-.3-.4-.1-.7-.2-1-.3-.4-.2-.8-.3-1.8-.3h-.9c-1 0-1.4.1-1.8.3-.3.1-.6.2-1 .4-.5.1-1.4.3-2.5.3-2.3 0-3.3-1-3.7-1.9-.2-.3-.4-.9-.5-1.7-.1 1.2.3 2.3.5 2.7.4.9 1.4 1.9 3.7 1.9 1.1 0 2-.2 2.5-.3.4-.1.7-.2 1-.3.4-.2.8-.3 1.8-.3h.9c1 0 1.3.1 1.8.3.3.1.6.2 1 .4.5.1 1.4.3 2.5.3 2.3 0 3.3-1 3.7-1.9.2-.4.6-1.5.5-2.7-.1.8-.3 1.4-.5 1.7-.4.7-1.4 1.7-3.7 1.7z" fill="#004C75" opacity=".3"/></g></svg>