<svg xmlns="http://www.w3.org/2000/svg" xmlns:xlink="http://www.w3.org/1999/xlink" width="50" height="30"><defs><path id="A" d="M0 .17h49.107v28.848H0z"/></defs><g fill="none" fill-rule="evenodd"><g transform="translate(0 .323)"><mask id="B" fill="#fff"><use xlink:href="#A"/></mask><path d="M49.107 14.703c0 .356-.123.703-.35.976-6.293 7.566-14.183 13.337-24.203 13.337S6.644 23.246.35 15.68c-.228-.273-.35-.62-.35-.976v-.22a1.53 1.53 0 0 1 .351-.977C6.644 5.94 14.534.17 24.553.17s17.9 5.77 24.203 13.337a1.53 1.53 0 0 1 .351.977v.22z" fill="#002569" mask="url(#B)"/></g><path d="M24.553 2.37a12.55 12.55 0 0 1 12.545 12.545 12.55 12.55 0 0 1-12.545 12.545 12.55 12.55 0 0 1-12.545-12.545A12.55 12.55 0 0 1 24.553 2.37" fill="#ff9500"/><path d="M24.553 4.423c5.795 0 10.493 4.698 10.493 10.493S30.348 25.41 24.553 25.41 14.06 20.71 14.06 14.916 18.758 4.423 24.553 4.423" fill="#f8d7b8"/><path d="M24.553 10.7c2.334 0 4.226 1.892 4.226 4.226s-1.892 4.226-4.226 4.226-4.226-1.892-4.226-4.226S22.22 10.7 24.553 10.7" fill="#002569"/></g></svg>