<?xml version="1.0" encoding="UTF-8"?>
<svg width="45px" height="45px" viewBox="0 0 45 45" version="1.1" xmlns="http://www.w3.org/2000/svg" xmlns:xlink="http://www.w3.org/1999/xlink">
    <!-- Generator: Sketch 48.1 (47250) - http://www.bohemiancoding.com/sketch -->
    <title>tips_icon</title>
    <desc>Created with Sketch.</desc>
    <defs></defs>
    <g id="Page-5" stroke="none" stroke-width="1" fill="none" fill-rule="evenodd">
        <g id="tips_icon">
            <g id="Page-1-Copy" transform="translate(3.000000, 0.000000)">
                <path d="M6.5147,18.8136 C6.4527,20.0486 6.6027,21.2786 7.0107,22.4206 C8.2347,25.8416 10.9687,28.5616 14.4157,29.7396 L14.6327,40.1186 C14.6457,40.7096 15.1277,41.1826 15.7197,41.1826 L21.9427,41.1826 C22.5327,41.1826 23.0137,40.7136 23.0297,40.1246 C23.1037,37.2916 23.3007,29.7456 23.3007,29.7396 C23.3017,29.7146 24.7407,28.8306 24.9037,28.7496 C26.7347,27.8306 28.3797,26.5006 29.5067,24.7756 C31.3167,22.0016 31.6397,18.3656 30.8207,15.2066 C30.3447,13.3676 29.4647,11.5996 28.0947,10.2846 C26.5257,8.7786 24.3997,7.9486 22.2457,7.6406 C17.4867,6.9596 12.2797,8.0216 9.1497,11.9156 C7.6437,13.7896 6.6417,16.3126 6.5147,18.8136" id="Fill-1" fill="#DED6C7"></path>
                <path d="M21.6778,40.5148 C22.5598,43.2448 19.7688,45.7058 17.0198,44.1808 C16.4488,43.8648 16.0238,43.3128 15.8278,42.6888 C14.8828,39.6648 17.6218,38.5968 20.1558,39.1758 C20.8508,39.3338 21.4588,39.8368 21.6778,40.5148" id="Fill-3" fill="#FFFFFF"></path>
                <path d="M21.6778,40.5148 C22.5598,43.2448 19.7688,45.7058 17.0198,44.1808 C16.4488,43.8648 16.0238,43.3128 15.8278,42.6888 C14.8828,39.6648 17.6218,38.5968 20.1558,39.1758 C20.8508,39.3338 21.4588,39.8368 21.6778,40.5148 Z" id="Stroke-5" stroke="#022765" stroke-width="0.987"></path>
                <path d="M23.0831,33.7668 L22.8951,40.4918 C22.8841,40.8758 22.5681,41.1828 22.1831,41.1828 L15.4851,41.1828 C15.1011,41.1828 14.7851,40.8758 14.7741,40.4918 L14.5831,33.7668 L23.0831,33.7668 Z" id="Fill-7" fill="#3AE7FD"></path>
                <path d="M14.671,36.1261 L22.975,36.1801" id="Stroke-9" stroke="#022765" stroke-width="0.987"></path>
                <path d="M14.711,38.2091 L22.957,38.2591" id="Stroke-11" stroke="#022765" stroke-width="0.987"></path>
                <path d="M17.1632,28.9259 L17.1632,18.7259 C17.1632,18.0659 16.6272,17.5299 15.9672,17.5299 L15.7782,17.5299 C15.1182,17.5299 14.5832,18.0659 14.5832,18.7259 C14.5832,19.6229 15.3172,20.3579 16.2152,20.3579 L21.5232,20.3579 C22.5722,20.3579 23.4312,19.4989 23.4312,18.4499 C23.4312,17.6389 22.7722,16.9799 21.9602,16.9799 L21.6252,16.9799 C20.8122,16.9799 20.1542,17.6389 20.1542,18.4499 L20.1542,28.9259" id="Stroke-13" stroke="#022765" stroke-width="0.987" stroke-linecap="round"></path>
                <path d="M19.0069,0.4933 L19.0069,4.3173" id="Stroke-15" stroke="#022765" stroke-width="0.987" stroke-linecap="round"></path>
                <path d="M5.1798,4.8859 L7.2208,7.1889" id="Stroke-17" stroke="#022765" stroke-width="0.987" stroke-linecap="round"></path>
                <path d="M0.4933,15.881 L4.0463,17.405" id="Stroke-19" stroke="#022765" stroke-width="0.987" stroke-linecap="round"></path>
                <path d="M33.631,5.0373 L31.59,7.3403" id="Stroke-21" stroke="#022765" stroke-width="0.987" stroke-linecap="round"></path>
                <path d="M38.3175,16.0324 L34.7645,17.5564" id="Stroke-23" stroke="#022765" stroke-width="0.987" stroke-linecap="round"></path>
                <path d="M6.5147,18.8136 C6.4527,20.0486 6.6027,21.2786 7.0107,22.4206 C8.2347,25.8416 10.9687,28.5616 14.4157,29.7396 L14.6327,40.1186 C14.6457,40.7096 15.1277,41.1826 15.7197,41.1826 L21.9427,41.1826 C22.5327,41.1826 23.0137,40.7136 23.0297,40.1246 C23.1037,37.2916 23.3007,29.7456 23.3007,29.7396 C23.3017,29.7146 24.7407,28.8306 24.9037,28.7496 C26.7347,27.8306 28.3797,26.5006 29.5067,24.7756 C31.3167,22.0016 31.6397,18.3656 30.8207,15.2066 C30.3447,13.3676 29.4647,11.5996 28.0947,10.2846 C26.5257,8.7786 24.3997,7.9486 22.2457,7.6406 C17.4867,6.9596 12.2797,8.0216 9.1497,11.9156 C7.6437,13.7896 6.6417,16.3126 6.5147,18.8136 Z" id="Stroke-25" stroke="#022765" stroke-width="0.987"></path>
            </g>
        </g>
    </g>
</svg>