<svg width="14" height="13" viewBox="0 0 14 13" xmlns="http://www.w3.org/2000/svg"><g fill="#8C8C8C" fill-rule="evenodd"><path d="M.5 11.286l.5.501L1.02.501l-.5.5 6.414.011-.5-.5-.02 11.285.5-.499-6.413-.012zm6.914.513L7.434.513a.5.5 0 0 0-.498-.5L.522 0A.5.5 0 0 0 .02.5L0 11.784a.5.5 0 0 0 .499.501l6.414.012a.5.5 0 0 0 .5-.499z"/><path d="M3.296 3.607L1.96 3.604l.002-1.337 1.339.002zm2.19.003l-1.338-.002.003-1.337 1.338.002zM3.292 5.847l-1.338-.003.003-1.337 1.338.002zm2.19.003l-1.338-.002.003-1.337 1.338.002zM3.288 8.087L1.95 8.084l.003-1.337 1.338.002zm2.189.003L4.14 8.089l.003-1.337 1.338.002zm-2.193 2.237l-1.338-.003.003-1.337 1.338.002zm2.189.003l-1.338-.002.003-1.337 1.338.002zm1.441.968l.5.501.016-8.656-.5.5 6.413.011-.5-.5-.015 8.655.5-.499-6.414-.012zm6.913.513l.016-8.656a.5.5 0 0 0-.499-.5l-6.413-.013a.5.5 0 0 0-.5.5l-.017 8.655a.5.5 0 0 0 .499.501l6.414.012a.5.5 0 0 0 .5-.499z"/><path d="M9.706 5.859l-1.338-.003.003-1.337 1.338.002zm2.189.004l-1.338-.003.003-1.337 1.338.002zM9.702 8.099l-1.338-.003.003-1.337 1.338.002zm2.189.004L10.553 8.1l.003-1.337 1.338.002zm-2.193 2.236l-1.338-.003.003-1.337L9.7 9zm2.189.004l-1.338-.003.003-1.337 1.338.002z"/></g></svg>