<?xml version="1.0" encoding="UTF-8" standalone="no"?>
<svg width="45px" height="45px" viewBox="0 0 45 45" version="1.1" xmlns="http://www.w3.org/2000/svg" xmlns:xlink="http://www.w3.org/1999/xlink">
    <!-- Generator: Sketch 48.1 (47250) - http://www.bohemiancoding.com/sketch -->
    <title>blog_icon</title>
    <desc>Created with Sketch.</desc>
    <defs></defs>
    <g id="Page-5" stroke="none" stroke-width="1" fill="none" fill-rule="evenodd">
        <g id="blog_icon">
            <g id="Page-1-Copy" transform="translate(0.000000, 6.000000)">
                <polygon id="Fill-1" fill="#022765" points="0.507 3.2071 44.273 3.2071 44.273 0.5071 0.507 0.5071"></polygon>
                <polygon id="Fill-2" fill="#DED6C7" points="2.9907 31.2837 2.9907 32.9257 20.4287 32.9077 20.4287 31.2667"></polygon>
                <polygon id="Fill-3" fill="#DED6C7" points="41.7889 29.0609 34.4659 29.0829 34.4659 26.7129 41.7889 26.6899"></polygon>
                <polygon id="Fill-4" fill="#DED6C7" points="34.4655 31.1739 34.4655 32.6539 41.7885 32.6399 41.7885 31.1599"></polygon>
                <polygon id="Fill-5" fill="#DED6C7" points="2.991 10.1721 41.789 10.1721 41.789 5.3691 2.991 5.3691"></polygon>
                <polygon id="Fill-6" fill="#3AE7FD" points="2.992 22.1131 20.43 22.1131 20.43 13.1291 2.992 13.1291"></polygon>
                <polygon id="Fill-7" fill="#DED6C7" points="41.6131 15.5434 21.9431 15.5554 21.9431 13.1854 41.6131 13.1734"></polygon>
                <polygon id="Fill-8" fill="#DED6C7" points="20.4295 24.4926 2.9915 24.5066 2.9915 23.0716 20.4295 23.0576"></polygon>
                <polygon id="Fill-9" fill="#DED6C7" points="41.6131 20.0141 21.9431 20.0251 21.9431 17.6551 41.6131 17.6431"></polygon>
                <polygon id="Fill-10" fill="#DED6C7" points="41.6131 24.4838 21.9431 24.4948 21.9431 22.1248 41.6131 22.1128"></polygon>
                <polygon id="Fill-11" fill="#DED6C7" points="20.4295 29.1674 2.9915 29.1904 2.9915 26.8204 20.4295 26.7974"></polygon>
                <polygon id="Fill-12" fill="#3AE7FD" points="21.943 32.3741 31.277 32.3741 31.277 26.7971 21.943 26.7971"></polygon>
                <polyline id="Stroke-13" stroke="#022765" stroke-width="1.014" stroke-linecap="round" points="5.9246 18.016 8.5426 18.016 8.5426 14.825 11.8956 14.825 11.8956 20.037 14.3706 20.037 14.3706 17.643 17.4966 17.643"></polyline>
                <g id="Group-20" transform="translate(0.000000, 0.161100)">
                    <polygon id="Stroke-14" stroke="#022765" stroke-width="1.014" stroke-linejoin="round" points="44.2733 32.4936 0.5063 32.4936 0.5063 5.6246 0.5063 0.3466 44.2733 0.3466"></polygon>
                    <path d="M4.6443,1.52 C4.6443,1.871 4.3603,2.154 4.0103,2.154 C3.6603,2.154 3.3753,1.871 3.3753,1.52 C3.3753,1.169 3.6603,0.885 4.0103,0.885 C4.3603,0.885 4.6443,1.169 4.6443,1.52" id="Fill-16" fill="#FFFFFF"></path>
                    <path d="M7.1932,1.52 C7.1932,1.871 6.9092,2.154 6.5582,2.154 C6.2092,2.154 5.9242,1.871 5.9242,1.52 C5.9242,1.169 6.2092,0.885 6.5582,0.885 C6.9092,0.885 7.1932,1.169 7.1932,1.52" id="Fill-18" fill="#FFFFFF"></path>
                </g>
            </g>
        </g>
    </g>
</svg>